<?xml version="1.0" encoding="utf-8"?>
<!-- Generator: Adobe Illustrator 24.0.0, SVG Export Plug-In . SVG Version: 6.00 Build 0)  -->
<svg version="1.1" xmlns="http://www.w3.org/2000/svg" xmlns:xlink="http://www.w3.org/1999/xlink" x="0px" y="0px"
	 viewBox="0 0 64 64" enable-background="new 0 0 64 64" xml:space="preserve">
<g id="Captions">
</g>
<g id="Icons">
	<g>
		<g>
			<path fill="#00A0C8" d="M16,28h-2c0-2.209-1.791-4-4-4s-4,1.791-4,4c-1.105,0-2,0.895-2,2c0,1.105,0.895,2,2,2h10
				c1.105,0,2-0.895,2-2C18,28.895,17.105,28,16,28z"/>
		</g>
		<g>
			<path fill="#00A0C8" d="M58,28h-2c0-2.209-1.791-4-4-4s-4,1.791-4,4c-1.105,0-2,0.895-2,2c0,1.105,0.895,2,2,2h10
				c1.105,0,2-0.895,2-2C60,28.895,59.105,28,58,28z"/>
		</g>
		<g>
			<g>
				<path fill="#FAB400" d="M46,38L32,24L18,38v18c0,1.105,0.895,2,2,2h24c1.105,0,2-0.895,2-2V38z"/>
			</g>
			<g>
				<circle fill="#DC9600" cx="32" cy="37" r="4"/>
			</g>
			<g>
				<rect x="18" y="40" fill="#DC9600" width="28" height="1"/>
			</g>
			<g>
				<rect x="25" y="31" fill="#DC9600" width="14" height="2"/>
			</g>
			<g>
				<rect x="20" y="36" fill="#DC9600" width="24" height="1"/>
			</g>
			<g>
				<polygon fill="#DC9600" points="32,24 18,38 18,42 32,28 46,42 46,38 				"/>
			</g>
			<g>
				<path fill="#C80A50" d="M48,42c-0.512,0-1.024-0.195-1.414-0.586L32,26.829L17.414,41.414c-0.78,0.781-2.048,0.781-2.828,0
					c-0.781-0.781-0.781-2.047,0-2.828l16-16c0.78-0.781,2.048-0.781,2.828,0l16,16c0.781,0.781,0.781,2.047,0,2.828
					C49.024,41.805,48.512,42,48,42z"/>
			</g>
			<g>
				<rect x="18" y="44" fill="#DC9600" width="28" height="1"/>
			</g>
			<g>
				<rect x="18" y="48" fill="#DC9600" width="28" height="1"/>
			</g>
			<g>
				<rect x="18" y="52" fill="#DC9600" width="28" height="1"/>
			</g>
		</g>
		<g>
			<path fill="#C80A50" d="M38,58H26V45c0-0.552,0.448-1,1-1h10c0.552,0,1,0.448,1,1V58z"/>
		</g>
		<g>
			<rect x="28" y="46" fill="#0A5078" width="8" height="12"/>
		</g>
		<g>
			<rect x="26" y="46" fill="#A00028" width="2" height="1"/>
		</g>
		<g>
			<rect x="36" y="46" fill="#A00028" width="2" height="1"/>
		</g>
		<g>
			<rect x="28" y="46" fill="#00325A" width="8" height="1"/>
		</g>
		<g>
			<path fill="#0082AA" d="M35.748,60C27.287,52.532,16.173,48,4,48v12H35.748z"/>
		</g>
		<g>
			<path fill="#00648C" d="M35.747,60c-1.351-1.192-2.768-2.31-4.247-3.346c-1.479,1.036-2.897,2.154-4.247,3.346H35.747z"/>
		</g>
		<g>
			<path fill="#00A0C8" d="M60,60V48c-12.173,0-23.287,4.532-31.748,12H60z"/>
		</g>
		<g>
			<circle fill="#C80A50" cx="32" cy="36" r="4"/>
		</g>
		<g>
			<circle fill="#00A0C8" cx="32" cy="36" r="2"/>
		</g>
		<g>
			<path fill="#A00028" d="M33.414,22.586c-0.78-0.781-2.048-0.781-2.828,0l-7.34,7.34c1.073,0.861,2.275,1.566,3.573,2.084
				L32,26.829l5.181,5.181c1.298-0.517,2.5-1.223,3.573-2.084L33.414,22.586z"/>
			<path fill="#A00028" d="M32,33c0.816,0,1.616-0.07,2.395-0.204C33.727,32.296,32.898,32,32,32s-1.727,0.296-2.395,0.796
				C30.384,32.93,31.184,33,32,33z"/>
			<g>
				<circle fill="#00A0C8" cx="32" cy="18" r="14"/>
			</g>
			<g>
				<path fill="#0082AA" d="M40,27H24c-1.105,0-2-0.895-2-2V15c0-1.105,0.895-2,2-2h16c1.105,0,2,0.895,2,2v10
					C42,26.105,41.105,27,40,27z"/>
			</g>
			<g>
				<g>
					<path fill="#0A5078" d="M40,26H24c-1.105,0-2-0.895-2-2V14c0-1.105,0.895-2,2-2h16c1.105,0,2,0.895,2,2v10
						C42,25.105,41.105,26,40,26z"/>
				</g>
				<g>
					<rect x="24" y="12" fill="#FAB400" width="2" height="14"/>
				</g>
				<g>
					<rect x="38" y="12" fill="#FAB400" width="2" height="14"/>
				</g>
				<g>
					<path fill="#C80A50" d="M36,12h-2v-1c0-0.551-0.449-1-1-1h-2c-0.551,0-1,0.449-1,1v1h-2v-1c0-1.654,1.346-3,3-3h2
						c1.654,0,3,1.346,3,3V12z"/>
				</g>
				<g>
					<rect x="28" y="11" fill="#A00028" width="2" height="1"/>
				</g>
				<g>
					<rect x="34" y="11" fill="#A00028" width="2" height="1"/>
				</g>
				<g>
					<rect x="26" y="12" fill="#00325A" width="1" height="14"/>
				</g>
				<g>
					<rect x="37" y="12" fill="#00325A" width="1" height="14"/>
				</g>
			</g>
		</g>
	</g>
</g>
</svg>
